<?xml version="1.0" standalone="no"?>
<!DOCTYPE svg PUBLIC "-//W3C//DTD SVG 20010904//EN"
 "http://www.w3.org/TR/2001/REC-SVG-20010904/DTD/svg10.dtd">
<svg version="1.0" xmlns="http://www.w3.org/2000/svg"
 width="100.000000pt" height="100.000000pt" viewBox="0 0 100.000000 100.000000"
 preserveAspectRatio="xMidYMid meet">
<metadata>
Created by potrace 1.14, written by Peter Selinger 2001-2017
</metadata>
<g transform="translate(0.000000,100.000000) scale(0.100000,-0.100000)"
fill="#000000" stroke="none">
<path d="M445 868 c-138 -18 -247 -111 -302 -258 -17 -46 -18 -164 -1 -215 17
-52 53 -118 71 -133 11 -10 12 -20 4 -50 -20 -74 16 -120 76 -100 15 6 27 13
27 16 0 4 4 13 8 20 7 10 17 9 53 -3 57 -21 182 -21 235 -2 157 57 260 204
256 364 0 30 -6 69 -12 88 -12 37 -7 55 14 55 8 0 21 11 30 24 12 20 13 31 5
55 -13 37 -46 48 -96 33 -33 -10 -38 -8 -67 19 -71 67 -189 101 -301 87z"/>
</g>
</svg>
